<?xml version="1.0" encoding="utf-8"?>
<!-- Generator: Adobe Illustrator 22.0.0, SVG Export Plug-In . SVG Version: 6.00 Build 0)  -->
<svg version="1.1" id="Layer_1" xmlns="http://www.w3.org/2000/svg" xmlns:xlink="http://www.w3.org/1999/xlink" x="0px" y="0px"
	 viewBox="0 0 144 144" style="enable-background:new 0 0 144 144;" xml:space="preserve">
<style type="text/css">
	.st0{fill:#5F5269;}
	.st1{fill:#FFFFFF;}
	.st2{fill:#2E2D30;}
</style>
<g>
	<g>
		<g>
			<path d="M15.6,79.5c6.4,12.8,20.3-4.4,24-10.4C46.9,57.5,54,44.4,56.4,30.7c0.8-4.7,2.5-13.2-1.1-17.2c-3.3-3.7-9.5-0.9-12.7,1.6
				c-8.9,6.8-6.1,20,0.2,27.4c4.8,5.7,11.7,8.3,17.8,12.5c1.8,1.2,3.3,2,3.5,4.4c0.2,2-0.5,4.4-0.7,6.4c-0.4,4.6-0.7,9.2-1.3,13.8
				c-0.3,2.2,2.5,3.2,4.1,2.4C77,76.6,78.9,64.3,82.5,53.9c-1.7,0.2-3.4,0.4-5,0.7c7.1,13.7,12.4,29.1,15.6,44.2
				c1.6,7.3,3.7,15.9,1.4,23.2c-2.4,7.4-12.5,12.8-17.6,4.6c-8.8-14.3,5.6-29.4,15.8-38.1c11.5-9.8,25.7-16.7,41.1-15.9
				c3.5,0.2,3.5-5.3,0-5.5C119,66.4,105,72.2,93.2,81.1c-10.6,8-22.2,18.9-24.1,32.7c-1.6,11.3,5.7,26,19.2,21.9
				c13.8-4.2,13.2-20.7,11.3-32c-2.9-17.7-9.1-36-17.4-51.9c-1.2-2.2-4.3-1.4-5,0.7c-3.1,8.9-4.4,20.1-13.7,24.8
				c1.4,0.8,2.8,1.6,4.1,2.4c0.9-6.7,1.5-13.5,1.9-20.3c0.3-5.1-2.3-6.5-6.2-9.2c-8.9-6.2-24.5-12.4-20.4-26.4
				c0.6-2.2,3.9-6.9,6.7-6.3c3.6,0.7,1.7,9.7,1.4,11.7c-1.1,6.4-3.3,12.6-6,18.4c-2.6,5.7-5.7,11.2-8.9,16.6
				c-1.2,2.1-12.4,19.1-15.7,12.4C18.8,73.6,14,76.4,15.6,79.5L15.6,79.5z"/>
		</g>
	</g>
	<g>
		<g>
			<path d="M76.9,31.3c0,0.3,0,0.5,0,0.8c-0.1,1.4,1.3,2.8,2.8,2.8c1.5-0.1,2.7-1.2,2.8-2.8c0-0.3,0-0.5,0-0.8
				c0.1-1.4-1.3-2.8-2.8-2.8C78.1,28.6,77,29.8,76.9,31.3L76.9,31.3z"/>
		</g>
	</g>
</g>
</svg>
